<svg xmlns="http://www.w3.org/2000/svg" width="1200" height="760" viewBox="0 0 1200 760" role="img" aria-labelledby="title desc">
  <title id="title">Teacher Lesson Plan and Feedback System Thumbnail</title>
  <desc id="desc">Education dashboard thumbnail showing lesson plans, feedback analytics, teacher controls, and student rating cards.</desc>
  <defs>
    <linearGradient id="bg" x1="0" y1="0" x2="1" y2="1">
      <stop offset="0" stop-color="#0d1726"/>
      <stop offset="0.55" stop-color="#14263a"/>
      <stop offset="1" stop-color="#0a2b26"/>
    </linearGradient>
    <linearGradient id="line" x1="0" y1="0" x2="1" y2="0">
      <stop offset="0" stop-color="#6d6bff"/>
      <stop offset="1" stop-color="#25d27f"/>
    </linearGradient>
    <filter id="shadow" x="-20%" y="-20%" width="140%" height="140%">
      <feDropShadow dx="0" dy="24" stdDeviation="28" flood-color="#000000" flood-opacity="0.34"/>
    </filter>
  </defs>
  <rect width="1200" height="760" fill="url(#bg)"/>
  <circle cx="1042" cy="138" r="238" fill="#ffffff" opacity="0.05"/>
  <circle cx="168" cy="642" r="220" fill="#25d27f" opacity="0.1"/>
  <text x="76" y="88" fill="#ffffff" font-family="Inter, Arial, sans-serif" font-size="34" font-weight="800">Web &amp; Android Application</text>
  <g filter="url(#shadow)">
    <rect x="86" y="132" width="1028" height="488" rx="36" fill="#111827" stroke="#ffffff" stroke-opacity="0.1"/>
    <rect x="86" y="132" width="174" height="488" rx="36" fill="#0b1220"/>
    <circle cx="144" cy="204" r="26" fill="#6d6bff"/>
    <rect x="184" y="190" width="54" height="12" rx="6" fill="#ffffff" opacity="0.8"/>
    <rect x="124" y="274" width="96" height="16" rx="8" fill="#ffffff" opacity="0.22"/>
    <rect x="124" y="328" width="110" height="16" rx="8" fill="#ffffff" opacity="0.42"/>
    <rect x="124" y="382" width="82" height="16" rx="8" fill="#ffffff" opacity="0.22"/>
    <text x="306" y="206" fill="#ffffff" font-family="Inter, Arial, sans-serif" font-size="34" font-weight="800">Teacher Dashboard</text>
    <text x="306" y="242" fill="#ffffff" opacity="0.58" font-family="Inter, Arial, sans-serif" font-size="18">Lesson plans, feedback, and weekly activity</text>
    <rect x="306" y="284" width="246" height="116" rx="24" fill="#ffffff" opacity="0.08"/>
    <text x="334" y="330" fill="#ffffff" opacity="0.58" font-family="Inter, Arial, sans-serif" font-size="17">Lesson Plans</text>
    <text x="334" y="372" fill="#ffffff" font-family="Inter, Arial, sans-serif" font-size="46" font-weight="900">10</text>
    <rect x="586" y="284" width="246" height="116" rx="24" fill="#ffffff" opacity="0.08"/>
    <text x="614" y="330" fill="#ffffff" opacity="0.58" font-family="Inter, Arial, sans-serif" font-size="17">Feedbacks</text>
    <text x="614" y="372" fill="#ffffff" font-family="Inter, Arial, sans-serif" font-size="46" font-weight="900">6</text>
    <rect x="866" y="284" width="184" height="116" rx="24" fill="#ffffff" opacity="0.08"/>
    <text x="894" y="330" fill="#ffffff" opacity="0.58" font-family="Inter, Arial, sans-serif" font-size="17">Ratings</text>
    <text x="894" y="372" fill="#ffffff" font-family="Inter, Arial, sans-serif" font-size="46" font-weight="900">4.8</text>
    <rect x="306" y="438" width="444" height="132" rx="26" fill="#ffffff" opacity="0.08"/>
    <path d="M338 536 C384 496, 420 530, 468 486 S556 442, 612 504 S704 542, 720 472" fill="none" stroke="#6d6bff" stroke-width="9" stroke-linecap="round"/>
    <path d="M338 550 C402 548, 442 540, 500 534 S604 520, 712 476" fill="none" stroke="#25d27f" stroke-width="9" stroke-linecap="round"/>
    <rect x="786" y="438" width="264" height="132" rx="26" fill="#ffffff" opacity="0.08"/>
    <rect x="822" y="474" width="190" height="16" rx="8" fill="#ffffff" opacity="0.62"/>
    <rect x="822" y="510" width="142" height="12" rx="6" fill="#ffffff" opacity="0.32"/>
    <rect x="822" y="538" width="92" height="12" rx="6" fill="#25d27f" opacity="0.85"/>
  </g>
  <g transform="translate(836 88)" filter="url(#shadow)">
    <rect width="204" height="332" rx="34" fill="#f7f7fb"/>
    <rect x="24" y="58" width="156" height="36" rx="18" fill="#edf0f7"/>
    <rect x="34" y="134" width="136" height="92" rx="20" fill="url(#line)" opacity="0.86"/>
    <circle cx="62" cy="262" r="12" fill="#25d27f"/>
    <circle cx="102" cy="262" r="12" fill="#6d6bff"/>
    <circle cx="142" cy="262" r="12" fill="#25d27f"/>
  </g>
  <text x="76" y="704" fill="#ffffff" font-family="Inter, Arial, sans-serif" font-size="58" font-weight="900">Teacher Lesson Plan &amp; Feedback</text>
</svg>
